%TF.GenerationSoftware,KiCad,Pcbnew,9.0.7-9.0.7~ubuntu24.04.1*%
%TF.CreationDate,2026-03-16T14:39:21-03:00*%
%TF.ProjectId,Esquema_Buzzer,45737175-656d-4615-9f42-757a7a65722e,2.0*%
%TF.SameCoordinates,Original*%
%TF.FileFunction,Copper,L1,Top*%
%TF.FilePolarity,Positive*%
%FSLAX46Y46*%
G04 Gerber Fmt 4.6, Leading zero omitted, Abs format (unit mm)*
G04 Created by KiCad (PCBNEW 9.0.7-9.0.7~ubuntu24.04.1) date 2026-03-16 14:39:21*
%MOMM*%
%LPD*%
G01*
G04 APERTURE LIST*
G04 Aperture macros list*
%AMRoundRect*
0 Rectangle with rounded corners*
0 $1 Rounding radius*
0 $2 $3 $4 $5 $6 $7 $8 $9 X,Y pos of 4 corners*
0 Add a 4 corners polygon primitive as box body*
4,1,4,$2,$3,$4,$5,$6,$7,$8,$9,$2,$3,0*
0 Add four circle primitives for the rounded corners*
1,1,$1+$1,$2,$3*
1,1,$1+$1,$4,$5*
1,1,$1+$1,$6,$7*
1,1,$1+$1,$8,$9*
0 Add four rect primitives between the rounded corners*
20,1,$1+$1,$2,$3,$4,$5,0*
20,1,$1+$1,$4,$5,$6,$7,0*
20,1,$1+$1,$6,$7,$8,$9,0*
20,1,$1+$1,$8,$9,$2,$3,0*%
G04 Aperture macros list end*
%ADD10C,0.300000*%
%TA.AperFunction,NonConductor*%
%ADD11C,0.300000*%
%TD*%
%TA.AperFunction,ComponentPad*%
%ADD12R,0.850000X0.850000*%
%TD*%
%TA.AperFunction,ComponentPad*%
%ADD13C,0.850000*%
%TD*%
%TA.AperFunction,SMDPad,CuDef*%
%ADD14R,1.600000X2.200000*%
%TD*%
%TA.AperFunction,ComponentPad*%
%ADD15R,1.500000X1.050000*%
%TD*%
%TA.AperFunction,ComponentPad*%
%ADD16O,1.500000X1.050000*%
%TD*%
%TA.AperFunction,ComponentPad*%
%ADD17C,1.400000*%
%TD*%
%TA.AperFunction,ComponentPad*%
%ADD18R,3.500000X3.500000*%
%TD*%
%TA.AperFunction,ComponentPad*%
%ADD19C,3.500000*%
%TD*%
%TA.AperFunction,ComponentPad*%
%ADD20R,2.000000X2.000000*%
%TD*%
%TA.AperFunction,ComponentPad*%
%ADD21C,2.000000*%
%TD*%
%TA.AperFunction,SMDPad,CuDef*%
%ADD22RoundRect,0.250000X0.675000X1.625000X-0.675000X1.625000X-0.675000X-1.625000X0.675000X-1.625000X0*%
%TD*%
%TA.AperFunction,SMDPad,CuDef*%
%ADD23R,1.500000X2.200000*%
%TD*%
%TA.AperFunction,SMDPad,CuDef*%
%ADD24RoundRect,0.100000X0.130000X0.100000X-0.130000X0.100000X-0.130000X-0.100000X0.130000X-0.100000X0*%
%TD*%
%TA.AperFunction,SMDPad,CuDef*%
%ADD25RoundRect,0.100000X-0.130000X-0.100000X0.130000X-0.100000X0.130000X0.100000X-0.130000X0.100000X0*%
%TD*%
%TA.AperFunction,SMDPad,CuDef*%
%ADD26RoundRect,0.150000X0.512500X0.150000X-0.512500X0.150000X-0.512500X-0.150000X0.512500X-0.150000X0*%
%TD*%
%TA.AperFunction,ComponentPad*%
%ADD27RoundRect,0.250000X-0.550000X-0.550000X0.550000X-0.550000X0.550000X0.550000X-0.550000X0.550000X0*%
%TD*%
%TA.AperFunction,ComponentPad*%
%ADD28C,1.600000*%
%TD*%
%TA.AperFunction,Conductor*%
%ADD29C,1.500000*%
%TD*%
%TA.AperFunction,Conductor*%
%ADD30C,0.250000*%
%TD*%
%TA.AperFunction,Conductor*%
%ADD31C,0.500000*%
%TD*%
%TA.AperFunction,Conductor*%
%ADD32C,0.350000*%
%TD*%
%TA.AperFunction,Conductor*%
%ADD33C,1.000000*%
%TD*%
G04 APERTURE END LIST*
D10*
D11*
X140054510Y-86890114D02*
X140268796Y-86961542D01*
X140268796Y-86961542D02*
X140340225Y-87032971D01*
X140340225Y-87032971D02*
X140411653Y-87175828D01*
X140411653Y-87175828D02*
X140411653Y-87390114D01*
X140411653Y-87390114D02*
X140340225Y-87532971D01*
X140340225Y-87532971D02*
X140268796Y-87604400D01*
X140268796Y-87604400D02*
X140125939Y-87675828D01*
X140125939Y-87675828D02*
X139554510Y-87675828D01*
X139554510Y-87675828D02*
X139554510Y-86175828D01*
X139554510Y-86175828D02*
X140054510Y-86175828D01*
X140054510Y-86175828D02*
X140197368Y-86247257D01*
X140197368Y-86247257D02*
X140268796Y-86318685D01*
X140268796Y-86318685D02*
X140340225Y-86461542D01*
X140340225Y-86461542D02*
X140340225Y-86604400D01*
X140340225Y-86604400D02*
X140268796Y-86747257D01*
X140268796Y-86747257D02*
X140197368Y-86818685D01*
X140197368Y-86818685D02*
X140054510Y-86890114D01*
X140054510Y-86890114D02*
X139554510Y-86890114D01*
X141697368Y-86675828D02*
X141697368Y-87675828D01*
X141054510Y-86675828D02*
X141054510Y-87461542D01*
X141054510Y-87461542D02*
X141125939Y-87604400D01*
X141125939Y-87604400D02*
X141268796Y-87675828D01*
X141268796Y-87675828D02*
X141483082Y-87675828D01*
X141483082Y-87675828D02*
X141625939Y-87604400D01*
X141625939Y-87604400D02*
X141697368Y-87532971D01*
X142268796Y-86675828D02*
X143054511Y-86675828D01*
X143054511Y-86675828D02*
X142268796Y-87675828D01*
X142268796Y-87675828D02*
X143054511Y-87675828D01*
X143483082Y-86675828D02*
X144268797Y-86675828D01*
X144268797Y-86675828D02*
X143483082Y-87675828D01*
X143483082Y-87675828D02*
X144268797Y-87675828D01*
X145411654Y-87604400D02*
X145268797Y-87675828D01*
X145268797Y-87675828D02*
X144983083Y-87675828D01*
X144983083Y-87675828D02*
X144840225Y-87604400D01*
X144840225Y-87604400D02*
X144768797Y-87461542D01*
X144768797Y-87461542D02*
X144768797Y-86890114D01*
X144768797Y-86890114D02*
X144840225Y-86747257D01*
X144840225Y-86747257D02*
X144983083Y-86675828D01*
X144983083Y-86675828D02*
X145268797Y-86675828D01*
X145268797Y-86675828D02*
X145411654Y-86747257D01*
X145411654Y-86747257D02*
X145483083Y-86890114D01*
X145483083Y-86890114D02*
X145483083Y-87032971D01*
X145483083Y-87032971D02*
X144768797Y-87175828D01*
X146125939Y-87675828D02*
X146125939Y-86675828D01*
X146125939Y-86961542D02*
X146197368Y-86818685D01*
X146197368Y-86818685D02*
X146268797Y-86747257D01*
X146268797Y-86747257D02*
X146411654Y-86675828D01*
X146411654Y-86675828D02*
X146554511Y-86675828D01*
D12*
%TO.P,J2,1,Pin_1*%
%TO.N,Net-(J2-Pin_1)*%
X135750000Y-108625000D03*
D13*
%TO.P,J2,2,Pin_2*%
%TO.N,unconnected-(J2-Pin_2-Pad2)*%
X135750000Y-107625000D03*
%TO.P,J2,3,Pin_3*%
%TO.N,Net-(J2-Pin_3)*%
X135750000Y-106625000D03*
%TD*%
D14*
%TO.P,C2,1*%
%TO.N,Net-(J1-Pin_2)*%
X150150000Y-94425000D03*
%TO.P,C2,2*%
%TO.N,GND*%
X150150000Y-91425000D03*
%TD*%
D15*
%TO.P,Q1,1,C*%
%TO.N,Net-(BZ1--)*%
X151700000Y-109600000D03*
D16*
%TO.P,Q1,2,B*%
%TO.N,Net-(Q1-B)*%
X151700000Y-108330000D03*
%TO.P,Q1,3,E*%
%TO.N,GND*%
X151700000Y-107060000D03*
%TD*%
D17*
%TO.P,J1,*%
%TO.N,*%
X135425000Y-103125000D03*
X135425000Y-92125000D03*
D18*
%TO.P,J1,1,Pin_1*%
%TO.N,GND*%
X145425000Y-95125000D03*
D19*
%TO.P,J1,2,Pin_2*%
%TO.N,Net-(J1-Pin_2)*%
X145425000Y-100125000D03*
%TD*%
D20*
%TO.P,BZ1,1,+*%
%TO.N,Net-(BZ1-+)*%
X164000000Y-103375000D03*
D21*
%TO.P,BZ1,2,-*%
%TO.N,Net-(BZ1--)*%
X164000000Y-110975000D03*
%TD*%
D22*
%TO.P,D1,1,K*%
%TO.N,Net-(BZ1-+)*%
X163775000Y-97625000D03*
%TO.P,D1,2,A*%
%TO.N,Net-(D1-A)*%
X159225000Y-97625000D03*
%TD*%
D23*
%TO.P,L1,1,1*%
%TO.N,Net-(J1-Pin_2)*%
X149650000Y-100125000D03*
%TO.P,L1,2,2*%
%TO.N,Net-(D1-A)*%
X156050000Y-100125000D03*
%TD*%
D24*
%TO.P,R3,1*%
%TO.N,GND*%
X159020000Y-91750000D03*
%TO.P,R3,2*%
%TO.N,Net-(U2-FB)*%
X158380000Y-91750000D03*
%TD*%
D25*
%TO.P,R2,1*%
%TO.N,Net-(U2-FB)*%
X159230000Y-93500000D03*
%TO.P,R2,2*%
%TO.N,Net-(BZ1-+)*%
X159870000Y-93500000D03*
%TD*%
D26*
%TO.P,U2,1,SW*%
%TO.N,Net-(D1-A)*%
X156337500Y-93650000D03*
%TO.P,U2,2,GND*%
%TO.N,GND*%
X156337500Y-92700000D03*
%TO.P,U2,3,FB*%
%TO.N,Net-(U2-FB)*%
X156337500Y-91750000D03*
%TO.P,U2,4,EN*%
%TO.N,Net-(J1-Pin_2)*%
X154062500Y-91750000D03*
%TO.P,U2,5,IN*%
X154062500Y-92700000D03*
%TO.P,U2,6,NC*%
%TO.N,unconnected-(U2-NC-Pad6)*%
X154062500Y-93650000D03*
%TD*%
D14*
%TO.P,C1,1*%
%TO.N,Net-(BZ1-+)*%
X163750000Y-93375000D03*
%TO.P,C1,2*%
%TO.N,GND*%
X163750000Y-90375000D03*
%TD*%
D17*
%TO.P,R1,1*%
%TO.N,Net-(BZ1--)*%
X156000000Y-110665000D03*
%TO.P,R1,2*%
%TO.N,Net-(BZ1-+)*%
X156000000Y-105585000D03*
%TD*%
D27*
%TO.P,U1,1*%
%TO.N,Net-(J2-Pin_3)*%
X138945000Y-106350000D03*
D28*
%TO.P,U1,2*%
%TO.N,Net-(J2-Pin_1)*%
X138945000Y-108890000D03*
%TO.P,U1,3*%
%TO.N,Net-(Q1-B)*%
X146565000Y-108890000D03*
%TO.P,U1,4*%
%TO.N,Net-(J1-Pin_2)*%
X146565000Y-106350000D03*
%TD*%
D29*
%TO.N,Net-(BZ1-+)*%
X159550000Y-105650000D02*
X156065000Y-105650000D01*
X163775000Y-94650000D02*
X163775000Y-97625000D01*
D30*
X163775000Y-93400000D02*
X163475000Y-93700000D01*
D29*
X161825000Y-103375000D02*
X159550000Y-105650000D01*
X163775000Y-93400000D02*
X163775000Y-94650000D01*
D31*
X163775000Y-93400000D02*
X163750000Y-93375000D01*
D29*
X163750000Y-103125000D02*
X164000000Y-103375000D01*
D32*
X162100000Y-94650000D02*
X163775000Y-94650000D01*
D31*
X163775000Y-100350000D02*
X163750000Y-100375000D01*
D29*
X163775000Y-97625000D02*
X163775000Y-100350000D01*
D32*
X160950000Y-93500000D02*
X162100000Y-94650000D01*
D29*
X156065000Y-105650000D02*
X156000000Y-105585000D01*
X164000000Y-103375000D02*
X161825000Y-103375000D01*
X163750000Y-100375000D02*
X163750000Y-103125000D01*
D32*
X159870000Y-93500000D02*
X160950000Y-93500000D01*
D33*
%TO.N,Net-(BZ1--)*%
X164000000Y-110975000D02*
X163690000Y-110665000D01*
X151700000Y-109600000D02*
X151700000Y-110300000D01*
X152065000Y-110665000D02*
X156000000Y-110665000D01*
X163690000Y-110665000D02*
X156000000Y-110665000D01*
D31*
X156015000Y-110650000D02*
X156000000Y-110665000D01*
D33*
X151700000Y-110300000D02*
X152065000Y-110665000D01*
%TO.N,GND*%
X150150000Y-89400000D02*
X150000000Y-89250000D01*
D29*
X155250000Y-89250000D02*
X156000000Y-89250000D01*
D32*
X155675001Y-92700000D02*
X155200000Y-92224999D01*
D29*
X160250000Y-89250000D02*
X163750000Y-89250000D01*
D32*
X155200000Y-92224999D02*
X155200000Y-89300000D01*
D33*
X145425000Y-89325000D02*
X145500000Y-89250000D01*
D31*
X155200000Y-89300000D02*
X155250000Y-89250000D01*
D29*
X145500000Y-89250000D02*
X150000000Y-89250000D01*
X145425000Y-95125000D02*
X145425000Y-89325000D01*
D30*
X156337500Y-92700000D02*
X155675001Y-92700000D01*
D29*
X150000000Y-89250000D02*
X155250000Y-89250000D01*
D32*
X159700000Y-91750000D02*
X160150000Y-91300000D01*
D33*
X163750000Y-90375000D02*
X163750000Y-89250000D01*
D32*
X159020000Y-91750000D02*
X159700000Y-91750000D01*
D30*
X160150000Y-89350000D02*
X160250000Y-89250000D01*
D29*
X156000000Y-89250000D02*
X160250000Y-89250000D01*
D33*
X150150000Y-91425000D02*
X150150000Y-89400000D01*
D32*
X160150000Y-91300000D02*
X160150000Y-89350000D01*
D29*
%TO.N,Net-(D1-A)*%
X156725000Y-100125000D02*
X159225000Y-97625000D01*
D31*
X156050000Y-100125000D02*
X156725000Y-100125000D01*
D30*
X159225000Y-96537500D02*
X159225000Y-97625000D01*
D31*
X159225000Y-96500000D02*
X159225000Y-97625000D01*
X156337500Y-93650000D02*
X159225000Y-96537500D01*
%TO.N,Net-(J2-Pin_1)*%
X138680000Y-108625000D02*
X138945000Y-108890000D01*
X135750000Y-108625000D02*
X138680000Y-108625000D01*
%TO.N,Net-(J2-Pin_3)*%
X138670000Y-106625000D02*
X138945000Y-106350000D01*
X135750000Y-106625000D02*
X138670000Y-106625000D01*
D33*
%TO.N,Net-(Q1-B)*%
X149170000Y-108330000D02*
X151700000Y-108330000D01*
X146575000Y-108900000D02*
X148600000Y-108900000D01*
X146565000Y-108890000D02*
X146575000Y-108900000D01*
X148600000Y-108900000D02*
X149170000Y-108330000D01*
D32*
%TO.N,Net-(U2-FB)*%
X158380000Y-93180000D02*
X158380000Y-91750000D01*
X158700000Y-93500000D02*
X158380000Y-93180000D01*
X159230000Y-93500000D02*
X158700000Y-93500000D01*
X158380000Y-91750000D02*
X156337500Y-91750000D01*
D31*
%TO.N,Net-(J1-Pin_2)*%
X150150000Y-94425000D02*
X149700000Y-94425000D01*
D33*
X149700000Y-94425000D02*
X148250000Y-95875000D01*
D31*
X154062500Y-92200000D02*
X154062500Y-91750000D01*
X154062500Y-92700000D02*
X154062500Y-92200000D01*
D29*
X145425000Y-100125000D02*
X149650000Y-100125000D01*
D31*
X150150000Y-94425000D02*
X151875000Y-94425000D01*
X151875000Y-94425000D02*
X152600000Y-93700000D01*
X152600000Y-93700000D02*
X152600000Y-92400000D01*
D33*
X147775000Y-106350000D02*
X148250000Y-105875000D01*
D31*
X152600000Y-92400000D02*
X152800000Y-92200000D01*
X152800000Y-92200000D02*
X154062500Y-92200000D01*
D33*
X148250000Y-95875000D02*
X148250000Y-100125000D01*
X148250000Y-105875000D02*
X148250000Y-100125000D01*
X146565000Y-106350000D02*
X147775000Y-106350000D01*
%TD*%
M02*
