%TF.GenerationSoftware,KiCad,Pcbnew,9.0.2*%
%TF.CreationDate,2025-10-22T16:23:27-03:00*%
%TF.ProjectId,Esquema_Buzzer,45737175-656d-4615-9f42-757a7a65722e,rev?*%
%TF.SameCoordinates,Original*%
%TF.FileFunction,Copper,L1,Top*%
%TF.FilePolarity,Positive*%
%FSLAX46Y46*%
G04 Gerber Fmt 4.6, Leading zero omitted, Abs format (unit mm)*
G04 Created by KiCad (PCBNEW 9.0.2) date 2025-10-22 16:23:27*
%MOMM*%
%LPD*%
G01*
G04 APERTURE LIST*
%ADD10C,0.080000*%
%TA.AperFunction,NonConductor*%
%ADD11C,0.080000*%
%TD*%
%ADD12C,0.060000*%
%TA.AperFunction,NonConductor*%
%ADD13C,0.060000*%
%TD*%
%TA.AperFunction,ViaPad*%
%ADD14C,0.600000*%
%TD*%
G04 APERTURE END LIST*
D10*
D11*
X36147869Y-33546887D02*
X36147869Y-33870697D01*
X36147869Y-33870697D02*
X36166916Y-33908792D01*
X36166916Y-33908792D02*
X36185964Y-33927840D01*
X36185964Y-33927840D02*
X36224059Y-33946887D01*
X36224059Y-33946887D02*
X36300250Y-33946887D01*
X36300250Y-33946887D02*
X36338345Y-33927840D01*
X36338345Y-33927840D02*
X36357392Y-33908792D01*
X36357392Y-33908792D02*
X36376440Y-33870697D01*
X36376440Y-33870697D02*
X36376440Y-33546887D01*
X36776440Y-33946887D02*
X36547869Y-33946887D01*
X36662155Y-33946887D02*
X36662155Y-33546887D01*
X36662155Y-33546887D02*
X36624059Y-33604030D01*
X36624059Y-33604030D02*
X36585964Y-33642125D01*
X36585964Y-33642125D02*
X36547869Y-33661173D01*
D12*
D13*
X39282330Y-32931594D02*
X39268044Y-32945880D01*
X39268044Y-32945880D02*
X39225187Y-32960165D01*
X39225187Y-32960165D02*
X39196615Y-32960165D01*
X39196615Y-32960165D02*
X39153758Y-32945880D01*
X39153758Y-32945880D02*
X39125187Y-32917308D01*
X39125187Y-32917308D02*
X39110901Y-32888737D01*
X39110901Y-32888737D02*
X39096615Y-32831594D01*
X39096615Y-32831594D02*
X39096615Y-32788737D01*
X39096615Y-32788737D02*
X39110901Y-32731594D01*
X39110901Y-32731594D02*
X39125187Y-32703022D01*
X39125187Y-32703022D02*
X39153758Y-32674451D01*
X39153758Y-32674451D02*
X39196615Y-32660165D01*
X39196615Y-32660165D02*
X39225187Y-32660165D01*
X39225187Y-32660165D02*
X39268044Y-32674451D01*
X39268044Y-32674451D02*
X39282330Y-32688737D01*
D10*
D11*
X29647869Y-33946887D02*
X29647869Y-33546887D01*
X29647869Y-33546887D02*
X29781202Y-33832601D01*
X29781202Y-33832601D02*
X29914535Y-33546887D01*
X29914535Y-33546887D02*
X29914535Y-33946887D01*
X30314535Y-33946887D02*
X30085964Y-33946887D01*
X30200250Y-33946887D02*
X30200250Y-33546887D01*
X30200250Y-33546887D02*
X30162154Y-33604030D01*
X30162154Y-33604030D02*
X30124059Y-33642125D01*
X30124059Y-33642125D02*
X30085964Y-33661173D01*
D10*
D11*
X36376440Y-29946887D02*
X36243107Y-29756411D01*
X36147869Y-29946887D02*
X36147869Y-29546887D01*
X36147869Y-29546887D02*
X36300250Y-29546887D01*
X36300250Y-29546887D02*
X36338345Y-29565935D01*
X36338345Y-29565935D02*
X36357392Y-29584982D01*
X36357392Y-29584982D02*
X36376440Y-29623078D01*
X36376440Y-29623078D02*
X36376440Y-29680220D01*
X36376440Y-29680220D02*
X36357392Y-29718316D01*
X36357392Y-29718316D02*
X36338345Y-29737363D01*
X36338345Y-29737363D02*
X36300250Y-29756411D01*
X36300250Y-29756411D02*
X36147869Y-29756411D01*
X36757392Y-29946887D02*
X36528821Y-29946887D01*
X36643107Y-29946887D02*
X36643107Y-29546887D01*
X36643107Y-29546887D02*
X36605011Y-29604030D01*
X36605011Y-29604030D02*
X36566916Y-29642125D01*
X36566916Y-29642125D02*
X36528821Y-29661173D01*
X37233583Y-29794506D02*
X37538345Y-29794506D01*
X37385964Y-29946887D02*
X37385964Y-29642125D01*
X38166916Y-29737363D02*
X38224059Y-29756411D01*
X38224059Y-29756411D02*
X38243106Y-29775459D01*
X38243106Y-29775459D02*
X38262154Y-29813554D01*
X38262154Y-29813554D02*
X38262154Y-29870697D01*
X38262154Y-29870697D02*
X38243106Y-29908792D01*
X38243106Y-29908792D02*
X38224059Y-29927840D01*
X38224059Y-29927840D02*
X38185964Y-29946887D01*
X38185964Y-29946887D02*
X38033583Y-29946887D01*
X38033583Y-29946887D02*
X38033583Y-29546887D01*
X38033583Y-29546887D02*
X38166916Y-29546887D01*
X38166916Y-29546887D02*
X38205011Y-29565935D01*
X38205011Y-29565935D02*
X38224059Y-29584982D01*
X38224059Y-29584982D02*
X38243106Y-29623078D01*
X38243106Y-29623078D02*
X38243106Y-29661173D01*
X38243106Y-29661173D02*
X38224059Y-29699268D01*
X38224059Y-29699268D02*
X38205011Y-29718316D01*
X38205011Y-29718316D02*
X38166916Y-29737363D01*
X38166916Y-29737363D02*
X38033583Y-29737363D01*
X38395487Y-29546887D02*
X38662154Y-29546887D01*
X38662154Y-29546887D02*
X38395487Y-29946887D01*
X38395487Y-29946887D02*
X38662154Y-29946887D01*
X39024058Y-29946887D02*
X38795487Y-29946887D01*
X38909773Y-29946887D02*
X38909773Y-29546887D01*
X38909773Y-29546887D02*
X38871677Y-29604030D01*
X38871677Y-29604030D02*
X38833582Y-29642125D01*
X38833582Y-29642125D02*
X38795487Y-29661173D01*
D12*
D13*
X42782330Y-33431594D02*
X42768044Y-33445880D01*
X42768044Y-33445880D02*
X42725187Y-33460165D01*
X42725187Y-33460165D02*
X42696615Y-33460165D01*
X42696615Y-33460165D02*
X42653758Y-33445880D01*
X42653758Y-33445880D02*
X42625187Y-33417308D01*
X42625187Y-33417308D02*
X42610901Y-33388737D01*
X42610901Y-33388737D02*
X42596615Y-33331594D01*
X42596615Y-33331594D02*
X42596615Y-33288737D01*
X42596615Y-33288737D02*
X42610901Y-33231594D01*
X42610901Y-33231594D02*
X42625187Y-33203022D01*
X42625187Y-33203022D02*
X42653758Y-33174451D01*
X42653758Y-33174451D02*
X42696615Y-33160165D01*
X42696615Y-33160165D02*
X42725187Y-33160165D01*
X42725187Y-33160165D02*
X42768044Y-33174451D01*
X42768044Y-33174451D02*
X42782330Y-33188737D01*
D10*
D11*
X39647869Y-38046887D02*
X39647869Y-38370697D01*
X39647869Y-38370697D02*
X39666916Y-38408792D01*
X39666916Y-38408792D02*
X39685964Y-38427840D01*
X39685964Y-38427840D02*
X39724059Y-38446887D01*
X39724059Y-38446887D02*
X39800250Y-38446887D01*
X39800250Y-38446887D02*
X39838345Y-38427840D01*
X39838345Y-38427840D02*
X39857392Y-38408792D01*
X39857392Y-38408792D02*
X39876440Y-38370697D01*
X39876440Y-38370697D02*
X39876440Y-38046887D01*
X40047869Y-38084982D02*
X40066917Y-38065935D01*
X40066917Y-38065935D02*
X40105012Y-38046887D01*
X40105012Y-38046887D02*
X40200250Y-38046887D01*
X40200250Y-38046887D02*
X40238345Y-38065935D01*
X40238345Y-38065935D02*
X40257393Y-38084982D01*
X40257393Y-38084982D02*
X40276440Y-38123078D01*
X40276440Y-38123078D02*
X40276440Y-38161173D01*
X40276440Y-38161173D02*
X40257393Y-38218316D01*
X40257393Y-38218316D02*
X40028821Y-38446887D01*
X40028821Y-38446887D02*
X40276440Y-38446887D01*
X40447869Y-38294506D02*
X40752631Y-38294506D01*
D12*
D13*
X42610901Y-36803022D02*
X42710901Y-36803022D01*
X42753758Y-36960165D02*
X42610901Y-36960165D01*
X42610901Y-36960165D02*
X42610901Y-36660165D01*
X42610901Y-36660165D02*
X42753758Y-36660165D01*
D10*
D11*
X42414535Y-34484982D02*
X42376440Y-34465935D01*
X42376440Y-34465935D02*
X42338345Y-34427840D01*
X42338345Y-34427840D02*
X42281202Y-34370697D01*
X42281202Y-34370697D02*
X42243107Y-34351649D01*
X42243107Y-34351649D02*
X42205011Y-34351649D01*
X42224059Y-34446887D02*
X42185964Y-34427840D01*
X42185964Y-34427840D02*
X42147869Y-34389744D01*
X42147869Y-34389744D02*
X42128821Y-34313554D01*
X42128821Y-34313554D02*
X42128821Y-34180220D01*
X42128821Y-34180220D02*
X42147869Y-34104030D01*
X42147869Y-34104030D02*
X42185964Y-34065935D01*
X42185964Y-34065935D02*
X42224059Y-34046887D01*
X42224059Y-34046887D02*
X42300250Y-34046887D01*
X42300250Y-34046887D02*
X42338345Y-34065935D01*
X42338345Y-34065935D02*
X42376440Y-34104030D01*
X42376440Y-34104030D02*
X42395488Y-34180220D01*
X42395488Y-34180220D02*
X42395488Y-34313554D01*
X42395488Y-34313554D02*
X42376440Y-34389744D01*
X42376440Y-34389744D02*
X42338345Y-34427840D01*
X42338345Y-34427840D02*
X42300250Y-34446887D01*
X42300250Y-34446887D02*
X42224059Y-34446887D01*
X42776440Y-34446887D02*
X42547869Y-34446887D01*
X42662155Y-34446887D02*
X42662155Y-34046887D01*
X42662155Y-34046887D02*
X42624059Y-34104030D01*
X42624059Y-34104030D02*
X42585964Y-34142125D01*
X42585964Y-34142125D02*
X42547869Y-34161173D01*
D12*
D13*
X33096615Y-32874451D02*
X33239473Y-32874451D01*
X33068044Y-32960165D02*
X33168044Y-32660165D01*
X33168044Y-32660165D02*
X33268044Y-32960165D01*
X33368044Y-32760165D02*
X33368044Y-32960165D01*
X33368044Y-32788737D02*
X33382330Y-32774451D01*
X33382330Y-32774451D02*
X33410901Y-32760165D01*
X33410901Y-32760165D02*
X33453758Y-32760165D01*
X33453758Y-32760165D02*
X33482330Y-32774451D01*
X33482330Y-32774451D02*
X33496616Y-32803022D01*
X33496616Y-32803022D02*
X33496616Y-32960165D01*
X33682330Y-32960165D02*
X33653759Y-32945880D01*
X33653759Y-32945880D02*
X33639473Y-32931594D01*
X33639473Y-32931594D02*
X33625187Y-32903022D01*
X33625187Y-32903022D02*
X33625187Y-32817308D01*
X33625187Y-32817308D02*
X33639473Y-32788737D01*
X33639473Y-32788737D02*
X33653759Y-32774451D01*
X33653759Y-32774451D02*
X33682330Y-32760165D01*
X33682330Y-32760165D02*
X33725187Y-32760165D01*
X33725187Y-32760165D02*
X33753759Y-32774451D01*
X33753759Y-32774451D02*
X33768045Y-32788737D01*
X33768045Y-32788737D02*
X33782330Y-32817308D01*
X33782330Y-32817308D02*
X33782330Y-32903022D01*
X33782330Y-32903022D02*
X33768045Y-32931594D01*
X33768045Y-32931594D02*
X33753759Y-32945880D01*
X33753759Y-32945880D02*
X33725187Y-32960165D01*
X33725187Y-32960165D02*
X33682330Y-32960165D01*
X34039474Y-32960165D02*
X34039474Y-32660165D01*
X34039474Y-32945880D02*
X34010902Y-32960165D01*
X34010902Y-32960165D02*
X33953759Y-32960165D01*
X33953759Y-32960165D02*
X33925188Y-32945880D01*
X33925188Y-32945880D02*
X33910902Y-32931594D01*
X33910902Y-32931594D02*
X33896616Y-32903022D01*
X33896616Y-32903022D02*
X33896616Y-32817308D01*
X33896616Y-32817308D02*
X33910902Y-32788737D01*
X33910902Y-32788737D02*
X33925188Y-32774451D01*
X33925188Y-32774451D02*
X33953759Y-32760165D01*
X33953759Y-32760165D02*
X34010902Y-32760165D01*
X34010902Y-32760165D02*
X34039474Y-32774451D01*
X34296617Y-32945880D02*
X34268045Y-32960165D01*
X34268045Y-32960165D02*
X34210903Y-32960165D01*
X34210903Y-32960165D02*
X34182331Y-32945880D01*
X34182331Y-32945880D02*
X34168045Y-32917308D01*
X34168045Y-32917308D02*
X34168045Y-32803022D01*
X34168045Y-32803022D02*
X34182331Y-32774451D01*
X34182331Y-32774451D02*
X34210903Y-32760165D01*
X34210903Y-32760165D02*
X34268045Y-32760165D01*
X34268045Y-32760165D02*
X34296617Y-32774451D01*
X34296617Y-32774451D02*
X34310903Y-32803022D01*
X34310903Y-32803022D02*
X34310903Y-32831594D01*
X34310903Y-32831594D02*
X34168045Y-32860165D01*
D12*
D13*
X39110901Y-34803022D02*
X39210901Y-34803022D01*
X39253758Y-34960165D02*
X39110901Y-34960165D01*
X39110901Y-34960165D02*
X39110901Y-34660165D01*
X39110901Y-34660165D02*
X39253758Y-34660165D01*
D12*
D13*
X33110901Y-29845880D02*
X33339473Y-29845880D01*
X33225187Y-29960165D02*
X33225187Y-29731594D01*
D12*
D13*
X43210901Y-34803022D02*
X43253758Y-34817308D01*
X43253758Y-34817308D02*
X43268044Y-34831594D01*
X43268044Y-34831594D02*
X43282330Y-34860165D01*
X43282330Y-34860165D02*
X43282330Y-34903022D01*
X43282330Y-34903022D02*
X43268044Y-34931594D01*
X43268044Y-34931594D02*
X43253758Y-34945880D01*
X43253758Y-34945880D02*
X43225187Y-34960165D01*
X43225187Y-34960165D02*
X43110901Y-34960165D01*
X43110901Y-34960165D02*
X43110901Y-34660165D01*
X43110901Y-34660165D02*
X43210901Y-34660165D01*
X43210901Y-34660165D02*
X43239473Y-34674451D01*
X43239473Y-34674451D02*
X43253758Y-34688737D01*
X43253758Y-34688737D02*
X43268044Y-34717308D01*
X43268044Y-34717308D02*
X43268044Y-34745880D01*
X43268044Y-34745880D02*
X43253758Y-34774451D01*
X43253758Y-34774451D02*
X43239473Y-34788737D01*
X43239473Y-34788737D02*
X43210901Y-34803022D01*
X43210901Y-34803022D02*
X43110901Y-34803022D01*
D12*
D13*
X33282330Y-34931594D02*
X33268044Y-34945880D01*
X33268044Y-34945880D02*
X33225187Y-34960165D01*
X33225187Y-34960165D02*
X33196615Y-34960165D01*
X33196615Y-34960165D02*
X33153758Y-34945880D01*
X33153758Y-34945880D02*
X33125187Y-34917308D01*
X33125187Y-34917308D02*
X33110901Y-34888737D01*
X33110901Y-34888737D02*
X33096615Y-34831594D01*
X33096615Y-34831594D02*
X33096615Y-34788737D01*
X33096615Y-34788737D02*
X33110901Y-34731594D01*
X33110901Y-34731594D02*
X33125187Y-34703022D01*
X33125187Y-34703022D02*
X33153758Y-34674451D01*
X33153758Y-34674451D02*
X33196615Y-34660165D01*
X33196615Y-34660165D02*
X33225187Y-34660165D01*
X33225187Y-34660165D02*
X33268044Y-34674451D01*
X33268044Y-34674451D02*
X33282330Y-34688737D01*
X33539473Y-34960165D02*
X33539473Y-34803022D01*
X33539473Y-34803022D02*
X33525187Y-34774451D01*
X33525187Y-34774451D02*
X33496615Y-34760165D01*
X33496615Y-34760165D02*
X33439473Y-34760165D01*
X33439473Y-34760165D02*
X33410901Y-34774451D01*
X33539473Y-34945880D02*
X33510901Y-34960165D01*
X33510901Y-34960165D02*
X33439473Y-34960165D01*
X33439473Y-34960165D02*
X33410901Y-34945880D01*
X33410901Y-34945880D02*
X33396615Y-34917308D01*
X33396615Y-34917308D02*
X33396615Y-34888737D01*
X33396615Y-34888737D02*
X33410901Y-34860165D01*
X33410901Y-34860165D02*
X33439473Y-34845880D01*
X33439473Y-34845880D02*
X33510901Y-34845880D01*
X33510901Y-34845880D02*
X33539473Y-34831594D01*
X33639473Y-34760165D02*
X33753759Y-34760165D01*
X33682330Y-34660165D02*
X33682330Y-34917308D01*
X33682330Y-34917308D02*
X33696616Y-34945880D01*
X33696616Y-34945880D02*
X33725187Y-34960165D01*
X33725187Y-34960165D02*
X33753759Y-34960165D01*
X33853759Y-34960165D02*
X33853759Y-34660165D01*
X33982331Y-34960165D02*
X33982331Y-34803022D01*
X33982331Y-34803022D02*
X33968045Y-34774451D01*
X33968045Y-34774451D02*
X33939473Y-34760165D01*
X33939473Y-34760165D02*
X33896616Y-34760165D01*
X33896616Y-34760165D02*
X33868045Y-34774451D01*
X33868045Y-34774451D02*
X33853759Y-34788737D01*
X34168045Y-34960165D02*
X34139474Y-34945880D01*
X34139474Y-34945880D02*
X34125188Y-34931594D01*
X34125188Y-34931594D02*
X34110902Y-34903022D01*
X34110902Y-34903022D02*
X34110902Y-34817308D01*
X34110902Y-34817308D02*
X34125188Y-34788737D01*
X34125188Y-34788737D02*
X34139474Y-34774451D01*
X34139474Y-34774451D02*
X34168045Y-34760165D01*
X34168045Y-34760165D02*
X34210902Y-34760165D01*
X34210902Y-34760165D02*
X34239474Y-34774451D01*
X34239474Y-34774451D02*
X34253760Y-34788737D01*
X34253760Y-34788737D02*
X34268045Y-34817308D01*
X34268045Y-34817308D02*
X34268045Y-34903022D01*
X34268045Y-34903022D02*
X34253760Y-34931594D01*
X34253760Y-34931594D02*
X34239474Y-34945880D01*
X34239474Y-34945880D02*
X34210902Y-34960165D01*
X34210902Y-34960165D02*
X34168045Y-34960165D01*
X34525189Y-34960165D02*
X34525189Y-34660165D01*
X34525189Y-34945880D02*
X34496617Y-34960165D01*
X34496617Y-34960165D02*
X34439474Y-34960165D01*
X34439474Y-34960165D02*
X34410903Y-34945880D01*
X34410903Y-34945880D02*
X34396617Y-34931594D01*
X34396617Y-34931594D02*
X34382331Y-34903022D01*
X34382331Y-34903022D02*
X34382331Y-34817308D01*
X34382331Y-34817308D02*
X34396617Y-34788737D01*
X34396617Y-34788737D02*
X34410903Y-34774451D01*
X34410903Y-34774451D02*
X34439474Y-34760165D01*
X34439474Y-34760165D02*
X34496617Y-34760165D01*
X34496617Y-34760165D02*
X34525189Y-34774451D01*
X34782332Y-34945880D02*
X34753760Y-34960165D01*
X34753760Y-34960165D02*
X34696618Y-34960165D01*
X34696618Y-34960165D02*
X34668046Y-34945880D01*
X34668046Y-34945880D02*
X34653760Y-34917308D01*
X34653760Y-34917308D02*
X34653760Y-34803022D01*
X34653760Y-34803022D02*
X34668046Y-34774451D01*
X34668046Y-34774451D02*
X34696618Y-34760165D01*
X34696618Y-34760165D02*
X34753760Y-34760165D01*
X34753760Y-34760165D02*
X34782332Y-34774451D01*
X34782332Y-34774451D02*
X34796618Y-34803022D01*
X34796618Y-34803022D02*
X34796618Y-34831594D01*
X34796618Y-34831594D02*
X34653760Y-34860165D01*
D12*
D13*
X41610901Y-29845880D02*
X41839473Y-29845880D01*
D10*
D11*
X37262154Y-38046887D02*
X37262154Y-38332601D01*
X37262154Y-38332601D02*
X37243107Y-38389744D01*
X37243107Y-38389744D02*
X37205011Y-38427840D01*
X37205011Y-38427840D02*
X37147869Y-38446887D01*
X37147869Y-38446887D02*
X37109773Y-38446887D01*
X37662154Y-38446887D02*
X37433583Y-38446887D01*
X37547869Y-38446887D02*
X37547869Y-38046887D01*
X37547869Y-38046887D02*
X37509773Y-38104030D01*
X37509773Y-38104030D02*
X37471678Y-38142125D01*
X37471678Y-38142125D02*
X37433583Y-38161173D01*
X37833583Y-38294506D02*
X38138345Y-38294506D01*
X37985964Y-38446887D02*
X37985964Y-38142125D01*
D10*
D11*
X29647869Y-29046887D02*
X29647869Y-29370697D01*
X29647869Y-29370697D02*
X29666916Y-29408792D01*
X29666916Y-29408792D02*
X29685964Y-29427840D01*
X29685964Y-29427840D02*
X29724059Y-29446887D01*
X29724059Y-29446887D02*
X29800250Y-29446887D01*
X29800250Y-29446887D02*
X29838345Y-29427840D01*
X29838345Y-29427840D02*
X29857392Y-29408792D01*
X29857392Y-29408792D02*
X29876440Y-29370697D01*
X29876440Y-29370697D02*
X29876440Y-29046887D01*
X30047869Y-29084982D02*
X30066917Y-29065935D01*
X30066917Y-29065935D02*
X30105012Y-29046887D01*
X30105012Y-29046887D02*
X30200250Y-29046887D01*
X30200250Y-29046887D02*
X30238345Y-29065935D01*
X30238345Y-29065935D02*
X30257393Y-29084982D01*
X30257393Y-29084982D02*
X30276440Y-29123078D01*
X30276440Y-29123078D02*
X30276440Y-29161173D01*
X30276440Y-29161173D02*
X30257393Y-29218316D01*
X30257393Y-29218316D02*
X30028821Y-29446887D01*
X30028821Y-29446887D02*
X30276440Y-29446887D01*
X30447869Y-29294506D02*
X30752631Y-29294506D01*
X30600250Y-29446887D02*
X30600250Y-29142125D01*
D14*
%TO.N,*%
X37500000Y-37500000D03*
X40000000Y-37500000D03*
X32500000Y-30000000D03*
X40000000Y-32500000D03*
X32500000Y-32500000D03*
X32500000Y-35000000D03*
X42500000Y-32500000D03*
X42500000Y-30000000D03*
X40000000Y-35000000D03*
X42500000Y-35000000D03*
X30000000Y-30000000D03*
X30000000Y-32500000D03*
X30000000Y-35000000D03*
X42500000Y-37500000D03*
%TD*%
%TA.AperFunction,NonConductor*%
G36*
X38502185Y-32019685D02*
G01*
X38547940Y-32072489D01*
X38559146Y-32124000D01*
X38559146Y-33497798D01*
X39817829Y-33497798D01*
X39817829Y-33424500D01*
X39837514Y-33357461D01*
X39890318Y-33311706D01*
X39941829Y-33300500D01*
X40078844Y-33300500D01*
X40078845Y-33300499D01*
X40233497Y-33269737D01*
X40328547Y-33230365D01*
X40398017Y-33222897D01*
X40460496Y-33254172D01*
X40496148Y-33314261D01*
X40500000Y-33344927D01*
X40500000Y-34155072D01*
X40480315Y-34222111D01*
X40427511Y-34267866D01*
X40358353Y-34277810D01*
X40328548Y-34269634D01*
X40319471Y-34265874D01*
X40233497Y-34230263D01*
X40233492Y-34230262D01*
X40233489Y-34230261D01*
X40078845Y-34199500D01*
X40078842Y-34199500D01*
X39921158Y-34199500D01*
X39915066Y-34199500D01*
X39915066Y-34197119D01*
X39856762Y-34186060D01*
X39827879Y-34158681D01*
X39825577Y-34160984D01*
X39789258Y-34124665D01*
X38575401Y-34124665D01*
X38575401Y-35376000D01*
X38555716Y-35443039D01*
X38502912Y-35488794D01*
X38451401Y-35500000D01*
X35458251Y-35500000D01*
X35391212Y-35480315D01*
X35345457Y-35427511D01*
X35334251Y-35376000D01*
X35334251Y-34495317D01*
X35599439Y-34495317D01*
X37321940Y-34495317D01*
X37321940Y-32999011D01*
X35599439Y-32999011D01*
X35599439Y-34495317D01*
X35334251Y-34495317D01*
X35334251Y-34122532D01*
X32559146Y-34122532D01*
X32539594Y-34142083D01*
X32539461Y-34142539D01*
X32537048Y-34144629D01*
X32522827Y-34158851D01*
X32521809Y-34157833D01*
X32486657Y-34188294D01*
X32435146Y-34199500D01*
X32421155Y-34199500D01*
X32266510Y-34230261D01*
X32266507Y-34230262D01*
X32266506Y-34230262D01*
X32266503Y-34230263D01*
X32185410Y-34263852D01*
X32171452Y-34269634D01*
X32101982Y-34277102D01*
X32039503Y-34245826D01*
X32003851Y-34185737D01*
X32000000Y-34155072D01*
X32000000Y-33344927D01*
X32019685Y-33277888D01*
X32072489Y-33232133D01*
X32141647Y-33222189D01*
X32171450Y-33230365D01*
X32266503Y-33269737D01*
X32307481Y-33277888D01*
X32427132Y-33301689D01*
X32426760Y-33303558D01*
X32483331Y-33326388D01*
X32523702Y-33383414D01*
X32530411Y-33423647D01*
X32530411Y-33497798D01*
X34848536Y-33497798D01*
X34848536Y-32124000D01*
X34868221Y-32056961D01*
X34921025Y-32011206D01*
X34972536Y-32000000D01*
X38435146Y-32000000D01*
X38502185Y-32019685D01*
G37*
%TD.AperFunction*%
M02*
